# xmcd CD database file
#
# Track frame offsets:
#	150
#	34233
#	60434
#	86531
#	120684
#	150032
#	196355
#	212018
#	235233
#	241162
#
# Disc length: 3840 seconds
#
# Revision: 0
# Processed by: cddbd v1.5.2PL0 Copyright (c) Steve Scherf et al.
# Submitted via: jetAudio 7
#
DISCID=750efe0a
DTITLE=馬曉暉  -  Deep Night
DYEAR=1900
DGENRE=Folk
TTITLE0=二泉映月
TTITLE1=歡樂歌
TTITLE2=夜深沉
TTITLE3=秋水伊人
TTITLE4=月夜
TTITLE5=憶秦娥
TTITLE6=草原賽馬
TTITLE7=G弦上的咏嘆調
TTITLE8=創意曲
TTITLE9=琴韵 －悟
EXTD=
EXTT0=
EXTT1=
EXTT2=
EXTT3=
EXTT4=
EXTT5=
EXTT6=
EXTT7=
EXTT8=
EXTT9=
PLAYORDER=
